# xmcd
#
# Track frame offsets: 
#        150
#        28705
#        51869
#        71681
#        91677
#        131588
#        160348
#        188895
#        215423
#        242507
#        280489
#
# Disc length: 4096 seconds
#
# Revision: 0
# Processed by: cddbd v1.4PL0 Copyright (c) Steve Scherf et al.
# Submitted via: ExactAudioCopy v0.95a3
#
DISCID=9b0ffe0b
DTITLE=Jersey Slim - Punked Out Mama
DYEAR=2003
DGENRE=Blues
TTITLE0=Punked Out Mama
TTITLE1=Junkyard Dog Blues
TTITLE2=Scratch My Back
TTITLE3=Tatooed White Trash
TTITLE4=Special 20 Blues
TTITLE5=Fannie Mae
TTITLE6=Hard Luck Blues
TTITLE7=Ratin' the Streets of New Orleans
TTITLE8=Tore Down
TTITLE9=Moonshine Whiskey Blues
TTITLE10=Who's yo Daddy
EXTD=
EXTT0=
EXTT1=
EXTT2=
EXTT3=
EXTT4=
EXTT5=
EXTT6=
EXTT7=
EXTT8=
EXTT9=
EXTT10=
PLAYORDER=
